<?xml version="1.0" encoding="UTF-8"?>
<svg version="1.1" xmlns="http://www.w3.org/2000/svg" width="56" height="48">
<path d="M0 0 C18.48 0 36.96 0 56 0 C56 15.84 56 31.68 56 48 C37.52 48 19.04 48 0 48 C0 32.16 0 16.32 0 0 Z " fill="#F1F1F1" transform="translate(0,0)"/>
<path d="M0 0 C0.99 0.33 1.98 0.66 3 1 C4.52160014 4.6037898 5 7.05220686 5 11 C6.98567708 11.1953125 8.97135417 11.390625 10.95703125 11.5859375 C13 12 13 12 16 14 C15.67 14.99 15.34 15.98 15 17 C11.3962102 18.52160014 8.94779314 19 5 19 C4.87625 20.258125 4.7525 21.51625 4.625 22.8125 C4.30131941 26.10325263 3.93395001 27.09907498 2 30 C1.01 29.67 0.02 29.34 -1 29 C-2.52160014 25.3962102 -3 22.94779314 -3 19 C-4.98567708 18.8046875 -6.97135417 18.609375 -8.95703125 18.4140625 C-11 18 -11 18 -14 16 C-13.67 15.01 -13.34 14.02 -13 13 C-9.3962102 11.47839986 -6.94779314 11 -3 11 C-2.87625 9.741875 -2.7525 8.48375 -2.625 7.1875 C-2.30131941 3.89674737 -1.93395001 2.90092502 0 0 Z " fill="#393939" transform="translate(27,11)"/>
<path d="M0 0 C0.99 0.33 1.98 0.66 3 1 C3.73046875 3.06640625 3.73046875 3.06640625 4.1875 5.5625 C4.34605469 6.38878906 4.50460938 7.21507812 4.66796875 8.06640625 C4.77753906 8.70449219 4.88710938 9.34257812 5 10 C4.01 10.33 3.02 10.66 2 11 C2 10.01 2 9.02 2 8 C1.34 8 0.68 8 0 8 C-0.12375 8.61875 -0.2475 9.2375 -0.375 9.875 C-1 12 -1 12 -3 14 C-4.32 14 -5.64 14 -7 14 C-7 14.66 -7 15.32 -7 16 C-6.21625 16.12375 -5.4325 16.2475 -4.625 16.375 C-2 17 -2 17 0 19 C0.125 22.125 0.125 22.125 0 25 C-0.66 25 -1.32 25 -2 25 C-2.33 23.02 -2.66 21.04 -3 19 C-4.98567708 18.8046875 -6.97135417 18.609375 -8.95703125 18.4140625 C-11 18 -11 18 -14 16 C-13.67 15.01 -13.34 14.02 -13 13 C-9.3962102 11.47839986 -6.94779314 11 -3 11 C-2.87625 9.741875 -2.7525 8.48375 -2.625 7.1875 C-2.30131941 3.89674737 -1.93395001 2.90092502 0 0 Z " fill="#323232" transform="translate(27,11)"/>
<path d="M0 0 C0.66 0 1.32 0 2 0 C2.474375 0.804375 2.94875 1.60875 3.4375 2.4375 C4.79983672 5.2918076 4.79983672 5.2918076 8 6 C8 6.66 8 7.32 8 8 C7.195625 8.474375 6.39125 8.94875 5.5625 9.4375 C2.7081924 10.79983672 2.7081924 10.79983672 2 14 C1.34 14 0.68 14 0 14 C-0.3403125 13.071875 -0.3403125 13.071875 -0.6875 12.125 C-2.37929835 9.38589791 -3.99244161 8.94975528 -7 8 C-7 7.34 -7 6.68 -7 6 C-6.21625 5.7525 -5.4325 5.505 -4.625 5.25 C-1.67682892 3.84610901 -1.0975223 2.99324263 0 0 Z " fill="#E5E5E5" transform="translate(27,19)"/>
<path d="M0 0 C0 0.66 0 1.32 0 2 C-0.66 2 -1.32 2 -2 2 C-2 2.66 -2 3.32 -2 4 C-1.21625 4.12375 -0.4325 4.2475 0.375 4.375 C3 5 3 5 5 7 C5.125 10.125 5.125 10.125 5 13 C4.34 13 3.68 13 3 13 C2.67 11.02 2.34 9.04 2 7 C0.01432292 6.8046875 -1.97135417 6.609375 -3.95703125 6.4140625 C-6 6 -6 6 -9 4 C-8.67 3.01 -8.34 2.02 -8 1 C-5.29120665 -0.35439668 -2.99066732 -0.06501451 0 0 Z " fill="#2E2E2E" transform="translate(22,23)"/>
<path d="M0 0 C0.99 0 1.98 0 3 0 C3 0.66 3 1.32 3 2 C3.99 2.33 4.98 2.66 6 3 C6 3.66 6 4.32 6 5 C5.01 5 4.02 5 3 5 C3 5.99 3 6.98 3 8 C2.01 7.67 1.02 7.34 0 7 C0 6.34 0 5.68 0 5 C-0.66 5 -1.32 5 -2 5 C-2 4.01 -2 3.02 -2 2 C-1.34 2 -0.68 2 0 2 C0 1.34 0 0.68 0 0 Z " fill="#333333" transform="translate(37,13)"/>
<path d="M0 0 C0.66 0 1.32 0 2 0 C3.125 2.3125 3.125 2.3125 4 5 C3.01 6.485 3.01 6.485 2 8 C1.01 7.67 0.02 7.34 -1 7 C-1.6875 4.9375 -1.6875 4.9375 -2 3 C-1.34 3 -0.68 3 0 3 C0 2.01 0 1.02 0 0 Z " fill="#3E3E3E" transform="translate(27,33)"/>
<path d="M0 0 C1.98 0.99 1.98 0.99 4 2 C4 3.98 4 5.96 4 8 C3.34 8 2.68 8 2 8 C1.34 5.36 0.68 2.72 0 0 Z " fill="#262626" transform="translate(23,28)"/>
<path d="M0 0 C2.64 0.66 5.28 1.32 8 2 C8 2.66 8 3.32 8 4 C6.02 4 4.04 4 2 4 C1.34 2.68 0.68 1.36 0 0 Z " fill="#272727" transform="translate(30,21)"/>
<path d="M0 0 C0.66 0 1.32 0 2 0 C1.34 2.64 0.68 5.28 0 8 C-0.66 7.67 -1.32 7.34 -2 7 C-2.125 4.625 -2.125 4.625 -2 2 C-1.34 1.34 -0.68 0.68 0 0 Z " fill="#272727" transform="translate(31,28)"/>
<path d="M0 0 C1.32 0.66 2.64 1.32 4 2 C3.34 3.32 2.68 4.64 2 6 C1.01 5.34 0.02 4.68 -1 4 C-0.67 2.68 -0.34 1.36 0 0 Z " fill="#2D2D2D" transform="translate(16,31)"/>
<path d="M0 0 C0.33 0.66 0.66 1.32 1 2 C1.66 2 2.32 2 3 2 C2.1875 3.9375 2.1875 3.9375 1 6 C0.01 6.33 -0.98 6.66 -2 7 C-2 6.34 -2 5.68 -2 5 C-2.66 4.67 -3.32 4.34 -4 4 C-2.68 4 -1.36 4 0 4 C0 2.68 0 1.36 0 0 Z " fill="#3A3A3A" transform="translate(24,18)"/>
</svg>
